#!OML:ASF G:\JayActor3\Patient Classification 1\Patient 1\Session 6\male.ASF
:FULLY-SPECIFIED
:DEGREES
1279
root 11.2899 16.2528 -2.61936 31.2191 -60.4732 -0.951636
lowerback 29.5165 -0.889881 5.72835
upperback 0.260471 0.825738 0.92534
thorax -15.2658 -0.0658869 -2.43215
lowerneck -6.21557 9.80047 10.2158
upperneck -20.1894 9.16648 -27.8491
head -2.59889 5.05558 -10.6388
rclavicle 4.65156e-014 -1.59028e-015
rhumerus 11.4292 -14.8771 -82.9621
rradius 65.1399
rwrist 17.6461
rhand -57.081 10.3061
rfingers 7.12502
rthumb -29.3688 -17.3936
lclavicle 4.65156e-014 -1.59028e-015
lhumerus -3.63297 20.7987 86.6518
lradius 82.2221
lwrist -3.70077
lhand -43.2868 -12.7283
lfingers 7.12502
lthumb -16.1345 16.6201
rfemur -63.4908 -7.14489 27.3653
rtibia 46.3648
rfoot -14.9789 -9.07065
rtoes 12.9323
lfemur -55.4186 6.91701 -26.1916
ltibia 36.5682
lfoot -11.454 -1.50874
ltoes 1.45224
1280
root 11.2932 16.2477 -2.62624 31.1796 -60.3773 -0.804184
lowerback 29.6122 -0.885332 5.79972
upperback 0.308041 0.86171 0.947048
thorax -15.2497 -0.0541425 -2.46066
lowerneck -6.23741 9.75098 10.1613
upperneck -20.2118 9.08568 -27.8881
head -2.61767 5.02046 -10.6506
rclavicle 8.74653e-015 5.56597e-015
rhumerus 11.7082 -14.8383 -83.0623
rradius 65.0344
rwrist 17.7484
rhand -57.2956 10.5262
rfingers 7.12502
rthumb -29.5737 -17.1374
lclavicle 8.74653e-015 5.56597e-015
lhumerus -3.70816 20.5261 86.8524
lradius 82.1753
lwrist -3.80533
lhand -43.4753 -12.9688
lfingers 7.12502
lthumb -16.316 16.3648
rfemur -63.6859 -7.1885 27.3354
rtibia 46.493
rfoot -15.0393 -9.12025
rtoes 12.9363
lfemur -55.581 6.82817 -26.2474
ltibia 36.6209
lfoot -11.4267 -1.53987
ltoes 1.45565
1281
root 11.2965 16.2426 -2.63287 31.1274 -60.2797 -0.644364
lowerback 29.7111 -0.885649 5.8727
upperback 0.353056 0.89189 0.965103
thorax -15.2383 -0.0453101 -2.49176
lowerneck -6.25402 9.70118 10.0951
upperneck -20.2444 9.00389 -27.916
head -2.64227 4.98593 -10.6573
rclavicle -7.95139e-015 8.07066e-014
rhumerus 11.9713 -14.7815 -83.1559
rradius 64.9404
rwrist 17.8444
rhand -57.5276 10.7627
rfingers 7.12502
rthumb -29.7951 -16.8615
lclavicle -7.95139e-015 8.07066e-014
lhumerus -3.80004 20.2555 87.0405
lradius 82.1446
lwrist -3.90541
lhand -43.6543 -13.2148
lfingers 7.12502
lthumb -16.4884 16.1046
rfemur -63.8824 -7.2426 27.3026
rtibia 46.6234
rfoot -15.095 -9.16802
rtoes 12.924
lfemur -55.7393 6.75511 -26.323
ltibia 36.6677
lfoot -11.3957 -1.59555
ltoes 1.46183
1282
root 11.2995 16.2375 -2.63945 31.0645 -60.1857 -0.47646
lowerback 29.8164 -0.886778 5.94107
upperback 0.393591 0.919749 0.979197
thorax -15.2352 -0.037578 -2.52384
lowerneck -6.26564 9.65054 10.016
upperneck -20.2818 8.92151 -27.932
head -2.67124 4.95201 -10.6581
rclavicle -5.56597e-015 2.0276e-014
rhumerus 12.2118 -14.7316 -83.2679
rradius 64.8748
rwrist 17.9519
rhand -57.7439 11.0475
rfingers 7.12502
rthumb -30.0015 -16.5395
lclavicle -5.56597e-015 2.0276e-014
lhumerus -3.94216 19.9621 87.1938
lradius 82.1538
lwrist -3.9818
lhand -43.8338 -13.4518
lfingers 7.12502
lthumb -16.6612 15.8531
rfemur -64.0763 -7.30016 27.2664
rtibia 46.7547
rfoot -15.1467 -9.21383
rtoes 12.9043
lfemur -55.8931 6.70417 -26.4173
ltibia 36.7114
lfoot -11.3612 -1.67893
ltoes 1.4737
1283
root 11.3023 16.2324 -2.64595 31.0071 -60.0975 -0.31833
lowerback 29.9276 -0.886499 6.0126
upperback 0.428702 0.950875 0.989555
thorax -15.2406 -0.0291031 -2.56308
lowerneck -6.26606 9.59695 9.93336
upperneck -20.3255 8.8344 -27.9457
head -2.7053 4.91695 -10.6588
rclavicle -3.45885e-014 -4.77083e-015
rhumerus 12.4395 -14.6849 -83.3835
rradius 64.8151
rwrist 18.0603
rhand -57.9304 11.3471
rfingers 7.12502
rthumb -30.1795 -16.2076
lclavicle -3.45885e-014 -4.77083e-015
lhumerus -4.08858 19.6777 87.3417
lradius 82.16
lwrist -4.06166
lhand -44.0009 -13.718
lfingers 7.12502
lthumb -16.8221 15.5733
rfemur -64.2631 -7.34948 27.2293
rtibia 46.884
rfoot -15.1992 -9.25745
rtoes 12.8991
lfemur -56.0447 6.67656 -26.5176
ltibia 36.7564
lfoot -11.3243 -1.79073
ltoes 1.5384
1284
root 11.3047 16.2273 -2.65242 30.9589 -60.0177 -0.171837
lowerback 30.0433 -0.881457 6.08521
upperback 0.457332 0.988946 0.996492
thorax -15.2549 -0.0181542 -2.60954
lowerneck -6.26632 9.54202 9.84516
upperneck -20.3606 8.74714 -27.9584
head -2.7374 4.88188 -10.6576
rclavicle -6.52014e-014 -4.37326e-014
rhumerus 12.6566 -14.6442 -83.4964
rradius 64.7498
rwrist 18.1683
rhand -58.0747 11.629
rfingers 7.12502
rthumb -30.3172 -15.9004
lclavicle -6.52014e-014 -4.37326e-014
lhumerus -4.23124 19.3973 87.4849
lradius 82.1514
lwrist -4.15003
lhand -44.1674 -13.9956
lfingers 7.12502
lthumb -16.9824 15.2821
rfemur -64.4438 -7.38885 27.1931
rtibia 47.0092
rfoot -15.2526 -9.29467
rtoes 12.9226
lfemur -56.1973 6.66814 -26.619
ltibia 36.8056
lfoot -11.2868 -1.92506
ltoes 1.66897
1285
root 11.3069 16.2221 -2.65875 30.9251 -59.9402 -0.0406702
lowerback 30.16 -0.87413 6.165
upperback 0.481764 1.03286 1.00275
thorax -15.2736 -0.00540693 -2.66305
lowerneck -6.26581 9.48727 9.75581
upperneck -20.3903 8.6603 -27.9789
head -2.76735 4.84733 -10.6584
rclavicle -6.08281e-014 5.56597e-015
rhumerus 12.8724 -14.6082 -83.6061
rradius 64.6709
rwrist 18.2815
rhand -58.1841 11.8498
rfingers 7.12502
rthumb -30.4215 -15.6603
lclavicle -6.08281e-014 5.56597e-015
lhumerus -4.37737 19.1083 87.6188
lradius 82.139
lwrist -4.242
lhand -44.3269 -14.2657
lfingers 7.12502
lthumb -17.1359 14.9986
rfemur -64.6199 -7.42367 27.1636
rtibia 47.1294
rfoot -15.3077 -9.324
rtoes 12.9715
lfemur -56.3542 6.67321 -26.7181
ltibia 36.8602
lfoot -11.2491 -2.07568
ltoes 1.82986
1286
root 11.3092 16.2171 -2.66478 30.9183 -59.8584 0.0599169
lowerback 30.2768 -0.86777 6.26568
upperback 0.503582 1.08335 1.0108
thorax -15.2941 0.00863423 -2.72857
lowerneck -6.27225 9.43407 9.66963
upperneck -20.4063 8.57656 -28.0119
head -2.79017 4.81368 -10.6628
rclavicle 7.95139e-016 -3.37934e-014
rhumerus 13.089 -14.5735 -83.7065
rradius 64.5754
rwrist 18.3962
rhand -58.2709 12.0357
rfingers 7.12502
rthumb -30.5043 -15.4591
lclavicle 7.95139e-016 -3.37934e-014
lhumerus -4.5095 18.8142 87.7514
lradius 82.1043
lwrist -4.33719
lhand -44.4968 -14.5228
lfingers 7.12502
lthumb -17.2994 14.7272
rfemur -64.7933 -7.45788 27.1526
rtibia 47.2454
rfoot -15.3589 -9.34911
rtoes 13.0189
lfemur -56.5137 6.68268 -26.8008
ltibia 36.9173
lfoot -11.2107 -2.22975
ltoes 2.00665
1287
root 11.3114 16.2122 -2.67078 30.924 -59.7771 0.148124
lowerback 30.3901 -0.859405 6.37313
upperback 0.524597 1.13876 1.01885
thorax -15.3129 0.0243481 -2.79975
lowerneck -6.27971 9.384 9.59295
upperneck -20.4132 8.49732 -28.0612
head -2.80724 4.78199 -10.6735
rclavicle 6.67916e-014 -6.99722e-014
rhumerus 13.3036 -14.5438 -83.8028
rradius 64.4711
rwrist 18.5102
rhand -58.3283 12.2078
rfingers 7.12502
rthumb -30.559 -15.2768
lclavicle 6.67916e-014 -6.99722e-014
lhumerus -4.65367 18.4941 87.8687
lradius 82.0756
lwrist -4.4174
lhand -44.6595 -14.7555
lfingers 7.12502
lthumb -17.4559 14.4807
rfemur -64.9674 -7.48786 27.1472
rtibia 47.3598
rfoot -15.4097 -9.37387
rtoes 13.0634
lfemur -56.674 6.69146 -26.8762
ltibia 36.9723
lfoot -11.1722 -2.37489
ltoes 2.15545
1288
root 11.3133 16.2073 -2.67673 30.9208 -59.6996 0.250374
lowerback 30.4985 -0.849705 6.47458
upperback 0.544249 1.1933 1.02353
thorax -15.331 0.0400032 -2.8711
lowerneck -6.29087 9.33863 9.52369
upperneck -20.4074 8.42625 -28.1209
head -2.81702 4.75366 -10.6876
rclavicle -4.53229e-014 -3.18055e-015
rhumerus 13.5101 -14.5121 -83.8951
rradius 64.3634
rwrist 18.6293
rhand -58.3767 12.3213
rfingers 7.12502
rthumb -30.6052 -15.1546
lclavicle -4.53229e-014 -3.18055e-015
lhumerus -4.836 18.1378 87.959
lradius 82.0764
lwrist -4.47232
lhand -44.8125 -14.9521
lfingers 7.12502
lthumb -17.6032 14.271
rfemur -65.1466 -7.51776 27.1329
rtibia 47.4754
rfoot -15.4589 -9.39943
rtoes 13.1105
lfemur -56.8322 6.68994 -26.9561
ltibia 37.0209
lfoot -11.1326 -2.50403
ltoes 2.26739
1289
root 11.3151 16.2025 -2.68271 30.8938 -59.632 0.380965
lowerback 30.6029 -0.837718 6.55887
upperback 0.565059 1.24373 1.02226
thorax -15.3465 0.0550106 -2.93809
lowerneck -6.30674 9.29889 9.45652
upperneck -20.3918 8.36526 -28.1822
head -2.82089 4.72963 -10.7009
rclavicle -6.2816e-014 -3.33958e-014
rhumerus 13.7068 -14.4694 -83.9815
rradius 64.2609
rwrist 18.7409
rhand -58.4091 12.4399
rfingers 7.12502
rthumb -30.6361 -15.0303
lclavicle -6.2816e-014 -3.33958e-014
lhumerus -5.04332 17.7593 88.0288
lradius 82.0998
lwrist -4.50548
lhand -44.9442 -15.146
lfingers 7.12502
lthumb -17.7299 14.0657
rfemur -65.3291 -7.54378 27.0966
rtibia 47.5932
rfoot -15.5078 -9.43015
rtoes 13.1567
lfemur -56.9829 6.6745 -27.0465
ltibia 37.0609
lfoot -11.0936 -2.60925
ltoes 2.33843
1290
root 11.3168 16.1978 -2.68867 30.8466 -59.5714 0.530567
lowerback 30.7089 -0.825858 6.63351
upperback 0.587676 1.28983 1.0149
thorax -15.3608 0.0686578 -3.00485
lowerneck -6.3203 9.26389 9.39034
upperneck -20.3767 8.31152 -28.2425
head -2.82396 4.70942 -10.7136
rclavicle 1.82882e-014 -3.18055e-015
rhumerus 13.8949 -14.4209 -84.0658
rradius 64.1622
rwrist 18.842
rhand -58.4229 12.5972
rfingers 7.12502
rthumb -30.6492 -14.8706
lclavicle 1.82882e-014 -3.18055e-015
lhumerus -5.2726 17.3633 88.0775
lradius 82.1444
lwrist -4.52617
lhand -45.0414 -15.3537
lfingers 7.12502
lthumb -17.8235 13.8496
rfemur -65.5097 -7.56922 27.0458
rtibia 47.7123
rfoot -15.5532 -9.46532
rtoes 13.1923
lfemur -57.1222 6.64294 -27.1392
ltibia 37.0935
lfoot -11.055 -2.68899
ltoes 2.36996
1291
root 11.3188 16.1935 -2.69433 30.7842 -59.5137 0.690768
lowerback 30.8196 -0.81773 6.71112
upperback 0.613201 1.33126 1.00027
thorax -15.3738 0.0798645 -3.07928
lowerneck -6.33407 9.23216 9.32069
upperneck -20.3652 8.2627 -28.2971
head -2.82779 4.69186 -10.7234
rclavicle 9.38264e-014 -7.15625e-015
rhumerus 14.0792 -14.3665 -84.1461
rradius 64.0705
rwrist 18.9087
rhand -58.4226 12.8528
rfingers 7.12502
rthumb -30.649 -14.615
lclavicle 9.38264e-014 -7.15625e-015
lhumerus -5.48319 16.9825 88.1267
lradius 82.1761
lwrist -4.57022
lhand -45.0875 -15.6072
lfingers 7.12502
lthumb -17.8678 13.592
rfemur -65.6824 -7.59358 26.9824
rtibia 47.8291
rfoot -15.5974 -9.50792
rtoes 13.2278
lfemur -57.2477 6.58944 -27.2237
ltibia 37.1217
lfoot -11.017 -2.74511
ltoes 2.40329
1292
root 11.3211 16.1895 -2.69969 30.7157 -59.4551 0.84784
lowerback 30.9381 -0.81538 6.79611
upperback 0.641646 1.3677 0.981712
thorax -15.3867 0.0882296 -3.15998
lowerneck -6.3441 9.20411 9.25
upperneck -20.3601 8.21888 -28.3466
head -2.83368 4.67726 -10.7314
rclavicle 1.51076e-014 6.36111e-015
rhumerus 14.2653 -14.2965 -84.2168
rradius 63.9739
rwrist 18.956
rhand -58.431 13.1576
rfingers 7.12502
rthumb -30.6569 -14.3087
lclavicle 1.51076e-014 6.36111e-015
lhumerus -5.67048 16.6269 88.1783
lradius 82.189
lwrist -4.6531
lhand -45.1093 -15.9086
lfingers 7.12502
lthumb -17.8888 13.2886
rfemur -65.8421 -7.61779 26.9167
rtibia 47.9415
rfoot -15.64 -9.55518
rtoes 13.2611
lfemur -57.3598 6.51603 -27.2915
ltibia 37.1487
lfoot -10.9808 -2.77766
ltoes 2.43783
1293
root 11.3235 16.1857 -2.70482 30.644 -59.3972 1.00069
lowerback 31.064 -0.816638 6.88401
upperback 0.672294 1.40065 0.96066
thorax -15.4002 0.0947562 -3.24355
lowerneck -6.34061 9.17889 9.18636
upperneck -20.3712 8.17612 -28.3994
head -2.8457 4.66462 -10.7434
rclavicle 3.97569e-015 2.46493e-014
rhumerus 14.4589 -14.2242 -84.2921
rradius 63.8739
rwrist 18.9961
rhand -58.458 13.5106
rfingers 7.12502
rthumb -30.6827 -13.9509
lclavicle 3.97569e-015 2.46493e-014
lhumerus -5.85153 16.2858 88.2237
lradius 82.1996
lwrist -4.77125
lhand -45.1172 -16.2506
lfingers 7.12502
lthumb -17.8965 12.9459
rfemur -65.9899 -7.63892 26.8483
rtibia 48.0479
rfoot -15.6816 -9.60856
rtoes 13.2857
lfemur -57.4613 6.43072 -27.347
ltibia 37.1755
lfoot -10.9473 -2.79649
ltoes 2.48007
